/* XPM */
static char *cb9315f693ff45bfb902642cdef98f18[] = {
/* columns rows colors chars-per-pixel */
"32 32 16 1 ",
"  c #31281F",
". c #231F20",
"X c #4C3B1E",
"o c #59441D",
"O c #674D1D",
"+ c #74571C",
"@ c #82601B",
"# c #90691B",
"$ c #9D721A",
"% c #AB7C19",
"& c #B88518",
"* c #C68E18",
"= c #D39717",
"- c #EEAA16",
"; c #FCB315",
": c None",
/* pixels */
":::::::::::;;;;;;;;;;:::::::::::",
":::::::::;;;;;;;;;;;;;;:::::::::",
":::::::;;;;;;;;;;;;;;;;;;:::::::",
"::::::;;;;;;;..**..;;;;;;;::::::",
":::::;;;;;;;;..**..;;;;;;;;:::::",
"::::;;;;;;;;;..$$..;;;;;;;;;::::",
":::;;;;;;;;;#......X$-;;;;;;;:::",
"::;;;;;;;;;+......... ;;;;;;;;::",
"::;;;;;;;;%...........;;;;;;;;::",
":;;;;;;;;;O....oX.....;;;;;;;;;:",
":;;;;;;;;; ...&;;@....;;;;;;;;;:",
";;;;;;;;;;....;;;*....;;;;;;;;;;",
";;;;;;;;;;....;;;*....;;;;;;;;;;",
";;;;;;;;;;....;;;=oooo;;;;;;;;;;",
";;;;;;;;;;....;;;;;;;;;;;;;;;;;;",
";;;;;;;;;;....;;;;;;;;;;;;;;;;;;",
";;;;;;;;;;....;;;;;;;;;;;;;;;;;;",
";;;;;;;;;;....;;;;;;;;;;;;;;;;;;",
";;;;;;;;;;....;;;=oooo;;;;;;;;;;",
";;;;;;;;;;....;;;*....;;;;;;;;;;",
";;;;;;;;;;....;;;*....;;;;;;;;;;",
":;;;;;;;;; ...%;;+....;;;;;;;;;:",
":;;;;;;;;;O....oX.....;;;;;;;;;:",
"::;;;;;;;;%...........;;;;;;;;::",
"::;;;;;;;;;O..........;;;;;;;;::",
":::;;;;;;;;;@.......X%;;;;;;;:::",
"::::;;;;;;;;;..$$..;;;;;;;;;::::",
":::::;;;;;;;;..**..;;;;;;;;:::::",
"::::::;;;;;;;..**..;;;;;;;::::::",
":::::::;;;;;;;;;;;;;;;;;;:::::::",
":::::::::;;;;;;;;;;;;;;:::::::::",
":::::::::::;;;;;;;;;;:::::::::::"
};
