/* XPM */
static char *_445536726804d48d6fd5503862cb8f3[] = {
/* columns rows colors chars-per-pixel */
"64 64 16 1 ",
"  c #31281F",
". c #3E321F",
"X c #231F20",
"o c #4C3B1E",
"O c #59441D",
"+ c #674D1D",
"@ c #74571C",
"# c #82601B",
"$ c #90691B",
"% c #AB7C19",
"& c #B88518",
"* c #C68E18",
"= c #D39717",
"- c #E1A116",
"; c #FCB315",
": c None",
/* pixels */
":::::::::::::::::::::::::;;;;;;;;;;;;;;:::::::::::::::::::::::::",
"::::::::::::::::::::::;;;;;;;;;;;;;;;;;;;;::::::::::::::::::::::",
":::::::::::::::::::;;;;;;;;;;;;;;;;;;;;;;;;;;:::::::::::::::::::",
":::::::::::::::::;;;;;;;;;;;;;;;;;;;;;;;;;;;;;;:::::::::::::::::",
":::::::::::::::;;;;;;;;;;;;;;;;;;;;;;;;;;;;;;;;;;:::::::::::::::",
"::::::::::::::;;;;;;;;;;;;;;;;;;;;;;;;;;;;;;;;;;;;::::::::::::::",
"::::::::::::;;;;;;;;;;;;;;OOOO%;;%OOOO;;;;;;;;;;;;;;::::::::::::",
":::::::::::;;;;;;;;;;;;;;;XXXX$;;$XXXX;;;;;;;;;;;;;;;:::::::::::",
"::::::::::;;;;;;;;;;;;;;;;XXXX$;;$XXXX;;;;;;;;;;;;;;;;::::::::::",
":::::::::;;;;;;;;;;;;;;;;;XXXX$;;$XXXX;;;;;;;;;;;;;;;;;:::::::::",
"::::::::;;;;;;;;;;;;;;;;;;XXXX$;;$XXXX;;;;;;;;;;;;;;;;;;::::::::",
":::::::;;;;;;;;;;;;;;;;;;;XXXXO$$OXXXX;;;;;;;;;;;;;;;;;;;:::::::",
"::::::;;;;;;;;;;;;;;;;;;;-XXXXXXXXXXXX#&;;;;;;;;;;;;;;;;;;::::::",
"::::::;;;;;;;;;;;;;;;;;;#XXXXXXXXXXXXXXX $-;;;;;;;;;;;;;;;::::::",
":::::;;;;;;;;;;;;;;;;;;@XXXXXXXXXXXXXXXXXX %;;;;;;;;;;;;;;;:::::",
"::::;;;;;;;;;;;;;;;;;;#XXXXXXXXXXXXXXXXXXXXO;;;;;;;;;;;;;;;;::::",
"::::;;;;;;;;;;;;;;;;;*XXXXXXXXXXXXXXXXXXXXXO;;;;;;;;;;;;;;;;::::",
":::;;;;;;;;;;;;;;;;;;OXXXXXXXXXXXXXXXXXXXXXO;;;;;;;;;;;;;;;;;:::",
":::;;;;;;;;;;;;;;;;;-XXXXXXXXXXXXXXXXXXXXXXO;;;;;;;;;;;;;;;;;:::",
"::;;;;;;;;;;;;;;;;;;%XXXXXXXXO&**$ XXXXXXXXO;;;;;;;;;;;;;;;;;;::",
"::;;;;;;;;;;;;;;;;;;@XXXXXXX+;;;;;=XXXXXXXXO;;;;;;;;;;;;;;;;;;::",
"::;;;;;;;;;;;;;;;;;;OXXXXXXX=;;;;;;OXXXXXXXO;;;;;;;;;;;;;;;;;;::",
":;;;;;;;;;;;;;;;;;;;OXXXXXXX;;;;;;;$XXXXXXXO;;;;;;;;;;;;;;;;;;;:",
":;;;;;;;;;;;;;;;;;;;OXXXXXXX;;;;;;;$XXXXXXXO;;;;;;;;;;;;;;;;;;;:",
":;;;;;;;;;;;;;;;;;;;OXXXXXXX;;;;;;;$XXXXXXXO;;;;;;;;;;;;;;;;;;;:",
";;;;;;;;;;;;;;;;;;;;OXXXXXXX;;;;;;;$XXXXXXXO;;;;;;;;;;;;;;;;;;;;",
";;;;;;;;;;;;;;;;;;;;OXXXXXXX;;;;;;;$XXXXXXXO;;;;;;;;;;;;;;;;;;;;",
";;;;;;;;;;;;;;;;;;;;OXXXXXXX;;;;;;;*$$$$$$$%;;;;;;;;;;;;;;;;;;;;",
";;;;;;;;;;;;;;;;;;;;OXXXXXXX;;;;;;;;;;;;;;;;;;;;;;;;;;;;;;;;;;;;",
";;;;;;;;;;;;;;;;;;;;OXXXXXXX;;;;;;;;;;;;;;;;;;;;;;;;;;;;;;;;;;;;",
";;;;;;;;;;;;;;;;;;;;OXXXXXXX;;;;;;;;;;;;;;;;;;;;;;;;;;;;;;;;;;;;",
";;;;;;;;;;;;;;;;;;;;OXXXXXXX;;;;;;;;;;;;;;;;;;;;;;;;;;;;;;;;;;;;",
";;;;;;;;;;;;;;;;;;;;OXXXXXXX;;;;;;;;;;;;;;;;;;;;;;;;;;;;;;;;;;;;",
";;;;;;;;;;;;;;;;;;;;OXXXXXXX;;;;;;;;;;;;;;;;;;;;;;;;;;;;;;;;;;;;",
";;;;;;;;;;;;;;;;;;;;OXXXXXXX;;;;;;;;;;;;;;;;;;;;;;;;;;;;;;;;;;;;",
";;;;;;;;;;;;;;;;;;;;OXXXXXXX;;;;;;;;;;;;;;;;;;;;;;;;;;;;;;;;;;;;",
";;;;;;;;;;;;;;;;;;;;OXXXXXXX;;;;;;;*$$$$$$$%;;;;;;;;;;;;;;;;;;;;",
";;;;;;;;;;;;;;;;;;;;OXXXXXXX;;;;;;;$XXXXXXXO;;;;;;;;;;;;;;;;;;;;",
";;;;;;;;;;;;;;;;;;;;OXXXXXXX;;;;;;;$XXXXXXXO;;;;;;;;;;;;;;;;;;;;",
":;;;;;;;;;;;;;;;;;;;OXXXXXXX;;;;;;;$XXXXXXXO;;;;;;;;;;;;;;;;;;;:",
":;;;;;;;;;;;;;;;;;;;OXXXXXXX;;;;;;;$XXXXXXXO;;;;;;;;;;;;;;;;;;;:",
":;;;;;;;;;;;;;;;;;;;OXXXXXXX;;;;;;;$XXXXXXXO;;;;;;;;;;;;;;;;;;;:",
"::;;;;;;;;;;;;;;;;;;OXXXXXXX=;;;;;;oXXXXXXXO;;;;;;;;;;;;;;;;;;::",
"::;;;;;;;;;;;;;;;;;;@XXXXXXX+;;;;;*XXXXXXXXO;;;;;;;;;;;;;;;;;;::",
"::;;;;;;;;;;;;;;;;;;%XXXXXXXXO&**# XXXXXXXXO;;;;;;;;;;;;;;;;;;::",
":::;;;;;;;;;;;;;;;;;-XXXXXXXXXXXXXXXXXXXXXXO;;;;;;;;;;;;;;;;;:::",
":::;;;;;;;;;;;;;;;;;;OXXXXXXXXXXXXXXXXXXXXXO;;;;;;;;;;;;;;;;;:::",
"::::;;;;;;;;;;;;;;;;;*XXXXXXXXXXXXXXXXXXXXXO;;;;;;;;;;;;;;;;::::",
"::::;;;;;;;;;;;;;;;;;;#XXXXXXXXXXXXXXXXXXXXO;;;;;;;;;;;;;;;;::::",
":::::;;;;;;;;;;;;;;;;;;@XXXXXXXXXXXXXXXXXXXO;;;;;;;;;;;;;;;:::::",
"::::::;;;;;;;;;;;;;;;;;;#XXXXXXXXXXXXXXXXX.*;;;;;;;;;;;;;;::::::",
"::::::;;;;;;;;;;;;;;;;;;;=XXXXXXXXXXXXXo#*;;;;;;;;;;;;;;;;::::::",
":::::::;;;;;;;;;;;;;;;;;;;XXXXO$$OXXXX;;;;;;;;;;;;;;;;;;;:::::::",
"::::::::;;;;;;;;;;;;;;;;;;XXXX$;;$XXXX;;;;;;;;;;;;;;;;;;::::::::",
":::::::::;;;;;;;;;;;;;;;;;XXXX$;;$XXXX;;;;;;;;;;;;;;;;;:::::::::",
"::::::::::;;;;;;;;;;;;;;;;XXXX$;;$XXXX;;;;;;;;;;;;;;;;::::::::::",
":::::::::::;;;;;;;;;;;;;;;XXXX$;;$XXXX;;;;;;;;;;;;;;;:::::::::::",
"::::::::::::;;;;;;;;;;;;;;OOOO%;;%OOOO;;;;;;;;;;;;;;::::::::::::",
"::::::::::::::;;;;;;;;;;;;;;;;;;;;;;;;;;;;;;;;;;;;::::::::::::::",
":::::::::::::::;;;;;;;;;;;;;;;;;;;;;;;;;;;;;;;;;;:::::::::::::::",
":::::::::::::::::;;;;;;;;;;;;;;;;;;;;;;;;;;;;;;:::::::::::::::::",
":::::::::::::::::::;;;;;;;;;;;;;;;;;;;;;;;;;;:::::::::::::::::::",
"::::::::::::::::::::::;;;;;;;;;;;;;;;;;;;;::::::::::::::::::::::",
":::::::::::::::::::::::::;;;;;;;;;;;;;;:::::::::::::::::::::::::"
};
