/* XPM */
static char *_d11834b2e8e4212e42e664225d8439e[] = {
/* columns rows colors chars-per-pixel */
"128 128 18 1 ",
"  c #31281F",
". c #3E321F",
"X c #231F20",
"o c #4C3B1E",
"O c #59441D",
"+ c #674D1D",
"@ c #74571C",
"# c #82601B",
"$ c #90691B",
"% c #9D721A",
"& c #AB7C19",
"* c #B88518",
"= c #C68E18",
"- c #D39717",
"; c #E1A116",
": c #EEAA16",
"> c #FCB315",
", c None",
/* pixels */
",,,,,,,,,,,,,,,,,,,,,,,,,,,,,,,,,,,,,,,,,,,,,,,,,,,,,,>>>>>>>>>>>>>>>>>>>>,,,,,,,,,,,,,,,,,,,,,,,,,,,,,,,,,,,,,,,,,,,,,,,,,,,,,,",
",,,,,,,,,,,,,,,,,,,,,,,,,,,,,,,,,,,,,,,,,,,,,,,,,>>>>>>>>>>>>>>>>>>>>>>>>>>>>>>,,,,,,,,,,,,,,,,,,,,,,,,,,,,,,,,,,,,,,,,,,,,,,,,,",
",,,,,,,,,,,,,,,,,,,,,,,,,,,,,,,,,,,,,,,,,,,,,,>>>>>>>>>>>>>>>>>>>>>>>>>>>>>>>>>>>>,,,,,,,,,,,,,,,,,,,,,,,,,,,,,,,,,,,,,,,,,,,,,,",
",,,,,,,,,,,,,,,,,,,,,,,,,,,,,,,,,,,,,,,,,,,>>>>>>>>>>>>>>>>>>>>>>>>>>>>>>>>>>>>>>>>>>,,,,,,,,,,,,,,,,,,,,,,,,,,,,,,,,,,,,,,,,,,,",
",,,,,,,,,,,,,,,,,,,,,,,,,,,,,,,,,,,,,,,,>>>>>>>>>>>>>>>>>>>>>>>>>>>>>>>>>>>>>>>>>>>>>>>>,,,,,,,,,,,,,,,,,,,,,,,,,,,,,,,,,,,,,,,,",
",,,,,,,,,,,,,,,,,,,,,,,,,,,,,,,,,,,,,>>>>>>>>>>>>>>>>>>>>>>>>>>>>>>>>>>>>>>>>>>>>>>>>>>>>>,,,,,,,,,,,,,,,,,,,,,,,,,,,,,,,,,,,,,,",
",,,,,,,,,,,,,,,,,,,,,,,,,,,,,,,,,,,>>>>>>>>>>>>>>>>>>>>>>>>>>>>>>>>>>>>>>>>>>>>>>>>>>>>>>>>>>,,,,,,,,,,,,,,,,,,,,,,,,,,,,,,,,,,,",
",,,,,,,,,,,,,,,,,,,,,,,,,,,,,,,,,>>>>>>>>>>>>>>>>>>>>>>>>>>>>>>>>>>>>>>>>>>>>>>>>>>>>>>>>>>>>>>,,,,,,,,,,,,,,,,,,,,,,,,,,,,,,,,,",
",,,,,,,,,,,,,,,,,,,,,,,,,,,,,,,,>>>>>>>>>>>>>>>>>>>>>>>>>>>>>>>>>>>>>>>>>>>>>>>>>>>>>>>>>>>>>>>>,,,,,,,,,,,,,,,,,,,,,,,,,,,,,,,,",
",,,,,,,,,,,,,,,,,,,,,,,,,,,,,,>>>>>>>>>>>>>>>>>>>>>>>>>>>>>>>>>>>>>>>>>>>>>>>>>>>>>>>>>>>>>>>>>>>>,,,,,,,,,,,,,,,,,,,,,,,,,,,,,,",
",,,,,,,,,,,,,,,,,,,,,,,,,,,,>>>>>>>>>>>>>>>>>>>>>>>>>>>>>>>>>>>>>>>>>>>>>>>>>>>>>>>>>>>>>>>>>>>>>>>>,,,,,,,,,,,,,,,,,,,,,,,,,,,,",
",,,,,,,,,,,,,,,,,,,,,,,,,,,>>>>>>>>>>>>>>>>>>>>>>>>>>>>>>>>>>>>>>>>>>>>>>>>>>>>>>>>>>>>>>>>>>>>>>>>>>,,,,,,,,,,,,,,,,,,,,,,,,,,,",
",,,,,,,,,,,,,,,,,,,,,,,,,,>>>>>>>>>>>>>>>>>>>>>>>>>>$$$$$$$$&>>>>>>&$$$$$$$$>>>>>>>>>>>>>>>>>>>>>>>>>>,,,,,,,,,,,,,,,,,,,,,,,,,,",
",,,,,,,,,,,,,,,,,,,,,,,,>>>>>>>>>>>>>>>>>>>>>>>>>>>>XXXXXXXXO>>>>>>OXXXXXXXX>>>>>>>>>>>>>>>>>>>>>>>>>>>>,,,,,,,,,,,,,,,,,,,,,,,,",
",,,,,,,,,,,,,,,,,,,,,,,>>>>>>>>>>>>>>>>>>>>>>>>>>>>>XXXXXXXXO>>>>>>OXXXXXXXX>>>>>>>>>>>>>>>>>>>>>>>>>>>>>,,,,,,,,,,,,,,,,,,,,,,,",
",,,,,,,,,,,,,,,,,,,,,,>>>>>>>>>>>>>>>>>>>>>>>>>>>>>>XXXXXXXXO>>>>>>OXXXXXXXX>>>>>>>>>>>>>>>>>>>>>>>>>>>>>>,,,,,,,,,,,,,,,,,,,,,,",
",,,,,,,,,,,,,,,,,,,,,>>>>>>>>>>>>>>>>>>>>>>>>>>>>>>>XXXXXXXXO>>>>>>OXXXXXXXX>>>>>>>>>>>>>>>>>>>>>>>>>>>>>>>,,,,,,,,,,,,,,,,,,,,,",
",,,,,,,,,,,,,,,,,,,,>>>>>>>>>>>>>>>>>>>>>>>>>>>>>>>>XXXXXXXXO>>>>>>OXXXXXXXX>>>>>>>>>>>>>>>>>>>>>>>>>>>>>>>>,,,,,,,,,,,,,,,,,,,,",
",,,,,,,,,,,,,,,,,,,>>>>>>>>>>>>>>>>>>>>>>>>>>>>>>>>>XXXXXXXXO>>>>>>OXXXXXXXX>>>>>>>>>>>>>>>>>>>>>>>>>>>>>>>>>,,,,,,,,,,,,,,,,,,,",
",,,,,,,,,,,,,,,,,,>>>>>>>>>>>>>>>>>>>>>>>>>>>>>>>>>>XXXXXXXXO>>>>>>OXXXXXXXX>>>>>>>>>>>>>>>>>>>>>>>>>>>>>>>>>>,,,,,,,,,,,,,,,,,,",
",,,,,,,,,,,,,,,,,>>>>>>>>>>>>>>>>>>>>>>>>>>>>>>>>>>>XXXXXXXXO>>>>>>OXXXXXXXX>>>>>>>>>>>>>>>>>>>>>>>>>>>>>>>>>>>,,,,,,,,,,,,,,,,,",
",,,,,,,,,,,,,,,,>>>>>>>>>>>>>>>>>>>>>>>>>>>>>>>>>>>>XXXXXXXXO>>>>>>OXXXXXXXX>>>>>>>>>>>>>>>>>>>>>>>>>>>>>>>>>>>>,,,,,,,,,,,,,,,,",
",,,,,,,,,,,,,,,>>>>>>>>>>>>>>>>>>>>>>>>>>>>>>>>>>>>>XXXXXXXXO>>>>>>OXXXXXXXX>>>>>>>>>>>>>>>>>>>>>>>>>>>>>>>>>>>>>,,,,,,,,,,,,,,,",
",,,,,,,,,,,,,,>>>>>>>>>>>>>>>>>>>>>>>>>>>>>>>>>>>>>>XXXXXXXXXXXXXXX XXXXXXXX>>>>>>>>>>>>>>>>>>>>>>>>>>>>>>>>>>>>>>,,,,,,,,,,,,,,",
",,,,,,,,,,,,,>>>>>>>>>>>>>>>>>>>>>>>>>>>>>>>>>>>>>>>XXXXXXXXXXXXXXXXXXXXXXXX=>>>>>>>>>>>>>>>>>>>>>>>>>>>>>>>>>>>>>>,,,,,,,,,,,,,",
",,,,,,,,,,,,,>>>>>>>>>>>>>>>>>>>>>>>>>>>>>>>>>>>>>:#XXXXXXXXXXXXXXXXXXXXXXXXX +&:>>>>>>>>>>>>>>>>>>>>>>>>>>>>>>>>>>,,,,,,,,,,,,,",
",,,,,,,,,,,,>>>>>>>>>>>>>>>>>>>>>>>>>>>>>>>>>>>>>% XXXXXXXXXXXXXXXXXXXXXXXXXXXXXX@=>>>>>>>>>>>>>>>>>>>>>>>>>>>>>>>>>,,,,,,,,,,,,",
",,,,,,,,,,,>>>>>>>>>>>>>>>>>>>>>>>>>>>>>>>>>>>>:+XXXXXXXXXXXXXXXXXXXXXXXXXXXXXXXXXX.&>>>>>>>>>>>>>>>>>>>>>>>>>>>>>>>>,,,,,,,,,,,",
",,,,,,,,,,>>>>>>>>>>>>>>>>>>>>>>>>>>>>>>>>>>>>:oXXXXXXXXXXXXXXXXXXXXXXXXXXXXXXXXXXXXXO->>>>>>>>>>>>>>>>>>>>>>>>>>>>>>>,,,,,,,,,,",
",,,,,,,,,,>>>>>>>>>>>>>>>>>>>>>>>>>>>>>>>>>>>:oXXXXXXXXXXXXXXXXXXXXXXXXXXXXXXXXXXXXXXXX&>>>>>>>>>>>>>>>>>>>>>>>>>>>>>>,,,,,,,,,,",
",,,,,,,,,>>>>>>>>>>>>>>>>>>>>>>>>>>>>>>>>>>>>+XXXXXXXXXXXXXXXXXXXXXXXXXXXXXXXXXXXXXXXXXO>>>>>>>>>>>>>>>>>>>>>>>>>>>>>>>,,,,,,,,,",
",,,,,,,,,>>>>>>>>>>>>>>>>>>>>>>>>>>>>>>>>>>>%XXXXXXXXXXXXXXXXXXXXXXXXXXXXXXXXXXXXXXXXXXO>>>>>>>>>>>>>>>>>>>>>>>>>>>>>>>,,,,,,,,,",
",,,,,,,,>>>>>>>>>>>>>>>>>>>>>>>>>>>>>>>>>>>; XXXXXXXXXXXXXXXXXXXXXXXXXXXXXXXXXXXXXXXXXXO>>>>>>>>>>>>>>>>>>>>>>>>>>>>>>>>,,,,,,,,",
",,,,,,,>>>>>>>>>>>>>>>>>>>>>>>>>>>>>>>>>>>>+XXXXXXXXXXXXXXXXXXXXXXXXXXXXXXXXXXXXXXXXXXXO>>>>>>>>>>>>>>>>>>>>>>>>>>>>>>>>>,,,,,,,",
",,,,,,,>>>>>>>>>>>>>>>>>>>>>>>>>>>>>>>>>>>-XXXXXXXXXXXXXXXXXXXXXXXXXXXXXXXXXXXXXXXXXXXXO>>>>>>>>>>>>>>>>>>>>>>>>>>>>>>>>>,,,,,,,",
",,,,,,>>>>>>>>>>>>>>>>>>>>>>>>>>>>>>>>>>>>@XXXXXXXXXXXXXXXXXXXXXXXXXXXXXXXXXXXXXXXXXXXXO>>>>>>>>>>>>>>>>>>>>>>>>>>>>>>>>>>,,,,,,",
",,,,,,>>>>>>>>>>>>>>>>>>>>>>>>>>>>>>>>>>>:XXXXXXXXXXXXXXXXXXXXXXXXXXXXXXXXXXXXXXXXXXXXXO>>>>>>>>>>>>>>>>>>>>>>>>>>>>>>>>>>,,,,,,",
",,,,,,>>>>>>>>>>>>>>>>>>>>>>>>>>>>>>>>>>>&XXXXXXXXXXXXXXXXXXXXXXXXXXXXXXXXXXXXXXXXXXXXXO>>>>>>>>>>>>>>>>>>>>>>>>>>>>>>>>>>,,,,,,",
",,,,,>>>>>>>>>>>>>>>>>>>>>>>>>>>>>>>>>>>>@XXXXXXXXXXXXXXXXXXO#$$$#oXXXXXXXXXXXXXXXXXXXXO>>>>>>>>>>>>>>>>>>>>>>>>>>>>>>>>>>>,,,,,",
",,,,,>>>>>>>>>>>>>>>>>>>>>>>>>>>>>>>>>>>>.XXXXXXXXXXXXXXXX+;>>>>>>>;OXXXXXXXXXXXXXXXXXXO>>>>>>>>>>>>>>>>>>>>>>>>>>>>>>>>>>>,,,,,",
",,,,>>>>>>>>>>>>>>>>>>>>>>>>>>>>>>>>>>>>;XXXXXXXXXXXXXXXX@>>>>>>>>>>>+XXXXXXXXXXXXXXXXXO>>>>>>>>>>>>>>>>>>>>>>>>>>>>>>>>>>>>,,,,",
",,,,>>>>>>>>>>>>>>>>>>>>>>>>>>>>>>>>>>>>=XXXXXXXXXXXXXXX :>>>>>>>>>>>: XXXXXXXXXXXXXXXXO>>>>>>>>>>>>>>>>>>>>>>>>>>>>>>>>>>>>,,,,",
",,,,>>>>>>>>>>>>>>>>>>>>>>>>>>>>>>>>>>>>%XXXXXXXXXXXXXXX#>>>>>>>>>>>>>@XXXXXXXXXXXXXXXXO>>>>>>>>>>>>>>>>>>>>>>>>>>>>>>>>>>>>,,,,",
",,,>>>>>>>>>>>>>>>>>>>>>>>>>>>>>>>>>>>>>$XXXXXXXXXXXXXXX=>>>>>>>>>>>>>*XXXXXXXXXXXXXXXXO>>>>>>>>>>>>>>>>>>>>>>>>>>>>>>>>>>>>>,,,",
",,,>>>>>>>>>>>>>>>>>>>>>>>>>>>>>>>>>>>>>$XXXXXXXXXXXXXXX>>>>>>>>>>>>>>:XXXXXXXXXXXXXXXXO>>>>>>>>>>>>>>>>>>>>>>>>>>>>>>>>>>>>>,,,",
",,,>>>>>>>>>>>>>>>>>>>>>>>>>>>>>>>>>>>>>+XXXXXXXXXXXXXXX>>>>>>>>>>>>>>>XXXXXXXXXXXXXXXXO>>>>>>>>>>>>>>>>>>>>>>>>>>>>>>>>>>>>>,,,",
",,>>>>>>>>>>>>>>>>>>>>>>>>>>>>>>>>>>>>>>OXXXXXXXXXXXXXXo>>>>>>>>>>>>>>>XXXXXXXXXXXXXXXXO>>>>>>>>>>>>>>>>>>>>>>>>>>>>>>>>>>>>>>,,",
",,>>>>>>>>>>>>>>>>>>>>>>>>>>>>>>>>>>>>>>OXXXXXXXXXXXXXXO>>>>>>>>>>>>>>>XXXXXXXXXXXXXXXXO>>>>>>>>>>>>>>>>>>>>>>>>>>>>>>>>>>>>>>,,",
",,>>>>>>>>>>>>>>>>>>>>>>>>>>>>>>>>>>>>>>OXXXXXXXXXXXXXXO>>>>>>>>>>>>>>>XXXXXXXXXXXXXXXXO>>>>>>>>>>>>>>>>>>>>>>>>>>>>>>>>>>>>>>,,",
",>>>>>>>>>>>>>>>>>>>>>>>>>>>>>>>>>>>>>>>OXXXXXXXXXXXXXXO>>>>>>>>>>>>>>>XXXXXXXXXXXXXXXXO>>>>>>>>>>>>>>>>>>>>>>>>>>>>>>>>>>>>>>>,",
",>>>>>>>>>>>>>>>>>>>>>>>>>>>>>>>>>>>>>>>OXXXXXXXXXXXXXXO>>>>>>>>>>>>>>>XXXXXXXXXXXXXXXXO>>>>>>>>>>>>>>>>>>>>>>>>>>>>>>>>>>>>>>>,",
",>>>>>>>>>>>>>>>>>>>>>>>>>>>>>>>>>>>>>>>OXXXXXXXXXXXXXXO>>>>>>>>>>>>>>>XXXXXXXXXXXXXXXXO>>>>>>>>>>>>>>>>>>>>>>>>>>>>>>>>>>>>>>>,",
",>>>>>>>>>>>>>>>>>>>>>>>>>>>>>>>>>>>>>>>OXXXXXXXXXXXXXXO>>>>>>>>>>>>>>>XXXXXXXXXXXXXXXXO>>>>>>>>>>>>>>>>>>>>>>>>>>>>>>>>>>>>>>>,",
",>>>>>>>>>>>>>>>>>>>>>>>>>>>>>>>>>>>>>>>OXXXXXXXXXXXXXXO>>>>>>>>>>>>>>>XXXXXXXXXXXXXXXXO>>>>>>>>>>>>>>>>>>>>>>>>>>>>>>>>>>>>>>>,",
">>>>>>>>>>>>>>>>>>>>>>>>>>>>>>>>>>>>>>>>OXXXXXXXXXXXXXXO>>>>>>>>>>>>>>>XXXXXXXXXXXXXXXXO>>>>>>>>>>>>>>>>>>>>>>>>>>>>>>>>>>>>>>>>",
">>>>>>>>>>>>>>>>>>>>>>>>>>>>>>>>>>>>>>>>OXXXXXXXXXXXXXXO>>>>>>>>>>>>>>>>>>>>>>>>>>>>>>>>>>>>>>>>>>>>>>>>>>>>>>>>>>>>>>>>>>>>>>>>",
">>>>>>>>>>>>>>>>>>>>>>>>>>>>>>>>>>>>>>>>OXXXXXXXXXXXXXXO>>>>>>>>>>>>>>>>>>>>>>>>>>>>>>>>>>>>>>>>>>>>>>>>>>>>>>>>>>>>>>>>>>>>>>>>",
">>>>>>>>>>>>>>>>>>>>>>>>>>>>>>>>>>>>>>>>OXXXXXXXXXXXXXXO>>>>>>>>>>>>>>>>>>>>>>>>>>>>>>>>>>>>>>>>>>>>>>>>>>>>>>>>>>>>>>>>>>>>>>>>",
">>>>>>>>>>>>>>>>>>>>>>>>>>>>>>>>>>>>>>>>OXXXXXXXXXXXXXXO>>>>>>>>>>>>>>>>>>>>>>>>>>>>>>>>>>>>>>>>>>>>>>>>>>>>>>>>>>>>>>>>>>>>>>>>",
">>>>>>>>>>>>>>>>>>>>>>>>>>>>>>>>>>>>>>>>OXXXXXXXXXXXXXXO>>>>>>>>>>>>>>>>>>>>>>>>>>>>>>>>>>>>>>>>>>>>>>>>>>>>>>>>>>>>>>>>>>>>>>>>",
">>>>>>>>>>>>>>>>>>>>>>>>>>>>>>>>>>>>>>>>OXXXXXXXXXXXXXXO>>>>>>>>>>>>>>>>>>>>>>>>>>>>>>>>>>>>>>>>>>>>>>>>>>>>>>>>>>>>>>>>>>>>>>>>",
">>>>>>>>>>>>>>>>>>>>>>>>>>>>>>>>>>>>>>>>OXXXXXXXXXXXXXXO>>>>>>>>>>>>>>>>>>>>>>>>>>>>>>>>>>>>>>>>>>>>>>>>>>>>>>>>>>>>>>>>>>>>>>>>",
">>>>>>>>>>>>>>>>>>>>>>>>>>>>>>>>>>>>>>>>OXXXXXXXXXXXXXXO>>>>>>>>>>>>>>>>>>>>>>>>>>>>>>>>>>>>>>>>>>>>>>>>>>>>>>>>>>>>>>>>>>>>>>>>",
">>>>>>>>>>>>>>>>>>>>>>>>>>>>>>>>>>>>>>>>OXXXXXXXXXXXXXXO>>>>>>>>>>>>>>>>>>>>>>>>>>>>>>>>>>>>>>>>>>>>>>>>>>>>>>>>>>>>>>>>>>>>>>>>",
">>>>>>>>>>>>>>>>>>>>>>>>>>>>>>>>>>>>>>>>OXXXXXXXXXXXXXXO>>>>>>>>>>>>>>>>>>>>>>>>>>>>>>>>>>>>>>>>>>>>>>>>>>>>>>>>>>>>>>>>>>>>>>>>",
">>>>>>>>>>>>>>>>>>>>>>>>>>>>>>>>>>>>>>>>OXXXXXXXXXXXXXXO>>>>>>>>>>>>>>>>>>>>>>>>>>>>>>>>>>>>>>>>>>>>>>>>>>>>>>>>>>>>>>>>>>>>>>>>",
">>>>>>>>>>>>>>>>>>>>>>>>>>>>>>>>>>>>>>>>OXXXXXXXXXXXXXXO>>>>>>>>>>>>>>>>>>>>>>>>>>>>>>>>>>>>>>>>>>>>>>>>>>>>>>>>>>>>>>>>>>>>>>>>",
">>>>>>>>>>>>>>>>>>>>>>>>>>>>>>>>>>>>>>>>OXXXXXXXXXXXXXXO>>>>>>>>>>>>>>>>>>>>>>>>>>>>>>>>>>>>>>>>>>>>>>>>>>>>>>>>>>>>>>>>>>>>>>>>",
">>>>>>>>>>>>>>>>>>>>>>>>>>>>>>>>>>>>>>>>OXXXXXXXXXXXXXXO>>>>>>>>>>>>>>>>>>>>>>>>>>>>>>>>>>>>>>>>>>>>>>>>>>>>>>>>>>>>>>>>>>>>>>>>",
">>>>>>>>>>>>>>>>>>>>>>>>>>>>>>>>>>>>>>>>OXXXXXXXXXXXXXXO>>>>>>>>>>>>>>>>>>>>>>>>>>>>>>>>>>>>>>>>>>>>>>>>>>>>>>>>>>>>>>>>>>>>>>>>",
">>>>>>>>>>>>>>>>>>>>>>>>>>>>>>>>>>>>>>>>OXXXXXXXXXXXXXXO>>>>>>>>>>>>>>>>>>>>>>>>>>>>>>>>>>>>>>>>>>>>>>>>>>>>>>>>>>>>>>>>>>>>>>>>",
">>>>>>>>>>>>>>>>>>>>>>>>>>>>>>>>>>>>>>>>OXXXXXXXXXXXXXXO>>>>>>>>>>>>>>>>>>>>>>>>>>>>>>>>>>>>>>>>>>>>>>>>>>>>>>>>>>>>>>>>>>>>>>>>",
">>>>>>>>>>>>>>>>>>>>>>>>>>>>>>>>>>>>>>>>OXXXXXXXXXXXXXXO>>>>>>>>>>>>>>>>>>>>>>>>>>>>>>>>>>>>>>>>>>>>>>>>>>>>>>>>>>>>>>>>>>>>>>>>",
">>>>>>>>>>>>>>>>>>>>>>>>>>>>>>>>>>>>>>>>OXXXXXXXXXXXXXXO>>>>>>>>>>>>>>>XXXXXXXXXXXXXXXXO>>>>>>>>>>>>>>>>>>>>>>>>>>>>>>>>>>>>>>>>",
",>>>>>>>>>>>>>>>>>>>>>>>>>>>>>>>>>>>>>>>OXXXXXXXXXXXXXXO>>>>>>>>>>>>>>>XXXXXXXXXXXXXXXXO>>>>>>>>>>>>>>>>>>>>>>>>>>>>>>>>>>>>>>>,",
",>>>>>>>>>>>>>>>>>>>>>>>>>>>>>>>>>>>>>>>OXXXXXXXXXXXXXXO>>>>>>>>>>>>>>>XXXXXXXXXXXXXXXXO>>>>>>>>>>>>>>>>>>>>>>>>>>>>>>>>>>>>>>>,",
",>>>>>>>>>>>>>>>>>>>>>>>>>>>>>>>>>>>>>>>OXXXXXXXXXXXXXXO>>>>>>>>>>>>>>>XXXXXXXXXXXXXXXXO>>>>>>>>>>>>>>>>>>>>>>>>>>>>>>>>>>>>>>>,",
",>>>>>>>>>>>>>>>>>>>>>>>>>>>>>>>>>>>>>>>OXXXXXXXXXXXXXXO>>>>>>>>>>>>>>>XXXXXXXXXXXXXXXXO>>>>>>>>>>>>>>>>>>>>>>>>>>>>>>>>>>>>>>>,",
",>>>>>>>>>>>>>>>>>>>>>>>>>>>>>>>>>>>>>>>OXXXXXXXXXXXXXXO>>>>>>>>>>>>>>>XXXXXXXXXXXXXXXXO>>>>>>>>>>>>>>>>>>>>>>>>>>>>>>>>>>>>>>>,",
",,>>>>>>>>>>>>>>>>>>>>>>>>>>>>>>>>>>>>>>OXXXXXXXXXXXXXXO>>>>>>>>>>>>>>>XXXXXXXXXXXXXXXXO>>>>>>>>>>>>>>>>>>>>>>>>>>>>>>>>>>>>>>,,",
",,>>>>>>>>>>>>>>>>>>>>>>>>>>>>>>>>>>>>>>OXXXXXXXXXXXXXXO>>>>>>>>>>>>>>>XXXXXXXXXXXXXXXXO>>>>>>>>>>>>>>>>>>>>>>>>>>>>>>>>>>>>>>,,",
",,>>>>>>>>>>>>>>>>>>>>>>>>>>>>>>>>>>>>>>OXXXXXXXXXXXXXXo>>>>>>>>>>>>>>>XXXXXXXXXXXXXXXXO>>>>>>>>>>>>>>>>>>>>>>>>>>>>>>>>>>>>>>,,",
",,,>>>>>>>>>>>>>>>>>>>>>>>>>>>>>>>>>>>>>OXXXXXXXXXXXXXXX>>>>>>>>>>>>>>>XXXXXXXXXXXXXXXXO>>>>>>>>>>>>>>>>>>>>>>>>>>>>>>>>>>>>>,,,",
",,,>>>>>>>>>>>>>>>>>>>>>>>>>>>>>>>>>>>>>$XXXXXXXXXXXXXXX>>>>>>>>>>>>>>:XXXXXXXXXXXXXXXXO>>>>>>>>>>>>>>>>>>>>>>>>>>>>>>>>>>>>>,,,",
",,,>>>>>>>>>>>>>>>>>>>>>>>>>>>>>>>>>>>>>$XXXXXXXXXXXXXXX=>>>>>>>>>>>>>*XXXXXXXXXXXXXXXXO>>>>>>>>>>>>>>>>>>>>>>>>>>>>>>>>>>>>>,,,",
",,,,>>>>>>>>>>>>>>>>>>>>>>>>>>>>>>>>>>>>%XXXXXXXXXXXXXXX#>>>>>>>>>>>>>@XXXXXXXXXXXXXXXXO>>>>>>>>>>>>>>>>>>>>>>>>>>>>>>>>>>>>,,,,",
",,,,>>>>>>>>>>>>>>>>>>>>>>>>>>>>>>>>>>>>=XXXXXXXXXXXXXXX :>>>>>>>>>>>;XXXXXXXXXXXXXXXXXO>>>>>>>>>>>>>>>>>>>>>>>>>>>>>>>>>>>>,,,,",
",,,,>>>>>>>>>>>>>>>>>>>>>>>>>>>>>>>>>>>>;XXXXXXXXXXXXXXXX+>>>>>>>>>>>OXXXXXXXXXXXXXXXXXO>>>>>>>>>>>>>>>>>>>>>>>>>>>>>>>>>>>>,,,,",
",,,,,>>>>>>>>>>>>>>>>>>>>>>>>>>>>>>>>>>>>.XXXXXXXXXXXXXXXX+;>>>>>>>;OXXXXXXXXXXXXXXXXXXO>>>>>>>>>>>>>>>>>>>>>>>>>>>>>>>>>>>,,,,,",
",,,,,>>>>>>>>>>>>>>>>>>>>>>>>>>>>>>>>>>>>@XXXXXXXXXXXXXXXXXXo#$$$#oXXXXXXXXXXXXXXXXXXXXO>>>>>>>>>>>>>>>>>>>>>>>>>>>>>>>>>>>,,,,,",
",,,,,>>>>>>>>>>>>>>>>>>>>>>>>>>>>>>>>>>>>&XXXXXXXXXXXXXXXXXXXXXXXXXXXXXXXXXXXXXXXXXXXXXO>>>>>>>>>>>>>>>>>>>>>>>>>>>>>>>>>>,,,,,,",
",,,,,,>>>>>>>>>>>>>>>>>>>>>>>>>>>>>>>>>>>:XXXXXXXXXXXXXXXXXXXXXXXXXXXXXXXXXXXXXXXXXXXXXO>>>>>>>>>>>>>>>>>>>>>>>>>>>>>>>>>>,,,,,,",
",,,,,,>>>>>>>>>>>>>>>>>>>>>>>>>>>>>>>>>>>>@XXXXXXXXXXXXXXXXXXXXXXXXXXXXXXXXXXXXXXXXXXXXO>>>>>>>>>>>>>>>>>>>>>>>>>>>>>>>>>>,,,,,,",
",,,,,,,>>>>>>>>>>>>>>>>>>>>>>>>>>>>>>>>>>>-XXXXXXXXXXXXXXXXXXXXXXXXXXXXXXXXXXXXXXXXXXXXO>>>>>>>>>>>>>>>>>>>>>>>>>>>>>>>>>,,,,,,,",
",,,,,,,>>>>>>>>>>>>>>>>>>>>>>>>>>>>>>>>>>>>+XXXXXXXXXXXXXXXXXXXXXXXXXXXXXXXXXXXXXXXXXXXO>>>>>>>>>>>>>>>>>>>>>>>>>>>>>>>>>,,,,,,,",
",,,,,,,,>>>>>>>>>>>>>>>>>>>>>>>>>>>>>>>>>>>;XXXXXXXXXXXXXXXXXXXXXXXXXXXXXXXXXXXXXXXXXXXO>>>>>>>>>>>>>>>>>>>>>>>>>>>>>>>>,,,,,,,,",
",,,,,,,,,>>>>>>>>>>>>>>>>>>>>>>>>>>>>>>>>>>>%XXXXXXXXXXXXXXXXXXXXXXXXXXXXXXXXXXXXXXXXXXO>>>>>>>>>>>>>>>>>>>>>>>>>>>>>>>,,,,,,,,,",
",,,,,,,,,>>>>>>>>>>>>>>>>>>>>>>>>>>>>>>>>>>>>+XXXXXXXXXXXXXXXXXXXXXXXXXXXXXXXXXXXXXXXXXO>>>>>>>>>>>>>>>>>>>>>>>>>>>>>>>,,,,,,,,,",
",,,,,,,,,,>>>>>>>>>>>>>>>>>>>>>>>>>>>>>>>>>>>:oXXXXXXXXXXXXXXXXXXXXXXXXXXXXXXXXXXXXXXXXO>>>>>>>>>>>>>>>>>>>>>>>>>>>>>>,,,,,,,,,,",
",,,,,,,,,,>>>>>>>>>>>>>>>>>>>>>>>>>>>>>>>>>>>>:oXXXXXXXXXXXXXXXXXXXXXXXXXXXXXXXXXXXXXXXO>>>>>>>>>>>>>>>>>>>>>>>>>>>>>>,,,,,,,,,,",
",,,,,,,,,,,>>>>>>>>>>>>>>>>>>>>>>>>>>>>>>>>>>>>:+XXXXXXXXXXXXXXXXXXXXXXXXXXXXXXXXXXXXXo->>>>>>>>>>>>>>>>>>>>>>>>>>>>>,,,,,,,,,,,",
",,,,,,,,,,,,>>>>>>>>>>>>>>>>>>>>>>>>>>>>>>>>>>>>>% XXXXXXXXXXXXXXXXXXXXXXXXXXXXXXXXX.&>>>>>>>>>>>>>>>>>>>>>>>>>>>>>>,,,,,,,,,,,,",
",,,,,,,,,,,,,>>>>>>>>>>>>>>>>>>>>>>>>>>>>>>>>>>>>>;@XXXXXXXXXXXXXXXXXXXXXXXXXXXXX @*>>>>>>>>>>>>>>>>>>>>>>>>>>>>>>>,,,,,,,,,,,,,",
",,,,,,,,,,,,,>>>>>>>>>>>>>>>>>>>>>>>>>>>>>>>>>>>>>>>XXXXXXXXXXXXXXXXXXXXXXXXX +$=>>>>>>>>>>>>>>>>>>>>>>>>>>>>>>>>>>,,,,,,,,,,,,,",
",,,,,,,,,,,,,,>>>>>>>>>>>>>>>>>>>>>>>>>>>>>>>>>>>>>>XXXXXXXXXXXXXXXXXXXXXXXX:>>>>>>>>>>>>>>>>>>>>>>>>>>>>>>>>>>>>>,,,,,,,,,,,,,,",
",,,,,,,,,,,,,,,>>>>>>>>>>>>>>>>>>>>>>>>>>>>>>>>>>>>>XXXXXXXXO>>>>>>OXXXXXXXX>>>>>>>>>>>>>>>>>>>>>>>>>>>>>>>>>>>>>,,,,,,,,,,,,,,,",
",,,,,,,,,,,,,,,,>>>>>>>>>>>>>>>>>>>>>>>>>>>>>>>>>>>>XXXXXXXXO>>>>>>OXXXXXXXX>>>>>>>>>>>>>>>>>>>>>>>>>>>>>>>>>>>>,,,,,,,,,,,,,,,,",
",,,,,,,,,,,,,,,,,>>>>>>>>>>>>>>>>>>>>>>>>>>>>>>>>>>>XXXXXXXXO>>>>>>OXXXXXXXX>>>>>>>>>>>>>>>>>>>>>>>>>>>>>>>>>>>,,,,,,,,,,,,,,,,,",
",,,,,,,,,,,,,,,,,,>>>>>>>>>>>>>>>>>>>>>>>>>>>>>>>>>>XXXXXXXXO>>>>>>OXXXXXXXX>>>>>>>>>>>>>>>>>>>>>>>>>>>>>>>>>>,,,,,,,,,,,,,,,,,,",
",,,,,,,,,,,,,,,,,,,>>>>>>>>>>>>>>>>>>>>>>>>>>>>>>>>>XXXXXXXXO>>>>>>OXXXXXXXX>>>>>>>>>>>>>>>>>>>>>>>>>>>>>>>>>,,,,,,,,,,,,,,,,,,,",
",,,,,,,,,,,,,,,,,,,,>>>>>>>>>>>>>>>>>>>>>>>>>>>>>>>>XXXXXXXXO>>>>>>OXXXXXXXX>>>>>>>>>>>>>>>>>>>>>>>>>>>>>>>>,,,,,,,,,,,,,,,,,,,,",
",,,,,,,,,,,,,,,,,,,,,>>>>>>>>>>>>>>>>>>>>>>>>>>>>>>>XXXXXXXXO>>>>>>OXXXXXXXX>>>>>>>>>>>>>>>>>>>>>>>>>>>>>>>,,,,,,,,,,,,,,,,,,,,,",
",,,,,,,,,,,,,,,,,,,,,,>>>>>>>>>>>>>>>>>>>>>>>>>>>>>>XXXXXXXXO>>>>>>OXXXXXXXX>>>>>>>>>>>>>>>>>>>>>>>>>>>>>>,,,,,,,,,,,,,,,,,,,,,,",
",,,,,,,,,,,,,,,,,,,,,,,>>>>>>>>>>>>>>>>>>>>>>>>>>>>>XXXXXXXXO>>>>>>OXXXXXXXX>>>>>>>>>>>>>>>>>>>>>>>>>>>>>,,,,,,,,,,,,,,,,,,,,,,,",
",,,,,,,,,,,,,,,,,,,,,,,,>>>>>>>>>>>>>>>>>>>>>>>>>>>>XXXXXXXXO>>>>>>OXXXXXXXX>>>>>>>>>>>>>>>>>>>>>>>>>>>>,,,,,,,,,,,,,,,,,,,,,,,,",
",,,,,,,,,,,,,,,,,,,,,,,,,,>>>>>>>>>>>>>>>>>>>>>>>>>>$$$$$$$$&>>>>>>&$$$$$$$$>>>>>>>>>>>>>>>>>>>>>>>>>>,,,,,,,,,,,,,,,,,,,,,,,,,,",
",,,,,,,,,,,,,,,,,,,,,,,,,,,>>>>>>>>>>>>>>>>>>>>>>>>>>>>>>>>>>>>>>>>>>>>>>>>>>>>>>>>>>>>>>>>>>>>>>>>>>,,,,,,,,,,,,,,,,,,,,,,,,,,,",
",,,,,,,,,,,,,,,,,,,,,,,,,,,,>>>>>>>>>>>>>>>>>>>>>>>>>>>>>>>>>>>>>>>>>>>>>>>>>>>>>>>>>>>>>>>>>>>>>>>>,,,,,,,,,,,,,,,,,,,,,,,,,,,,",
",,,,,,,,,,,,,,,,,,,,,,,,,,,,,,>>>>>>>>>>>>>>>>>>>>>>>>>>>>>>>>>>>>>>>>>>>>>>>>>>>>>>>>>>>>>>>>>>>>,,,,,,,,,,,,,,,,,,,,,,,,,,,,,,",
",,,,,,,,,,,,,,,,,,,,,,,,,,,,,,,,>>>>>>>>>>>>>>>>>>>>>>>>>>>>>>>>>>>>>>>>>>>>>>>>>>>>>>>>>>>>>>>>,,,,,,,,,,,,,,,,,,,,,,,,,,,,,,,,",
",,,,,,,,,,,,,,,,,,,,,,,,,,,,,,,,,>>>>>>>>>>>>>>>>>>>>>>>>>>>>>>>>>>>>>>>>>>>>>>>>>>>>>>>>>>>>>>,,,,,,,,,,,,,,,,,,,,,,,,,,,,,,,,,",
",,,,,,,,,,,,,,,,,,,,,,,,,,,,,,,,,,,>>>>>>>>>>>>>>>>>>>>>>>>>>>>>>>>>>>>>>>>>>>>>>>>>>>>>>>>>>,,,,,,,,,,,,,,,,,,,,,,,,,,,,,,,,,,,",
",,,,,,,,,,,,,,,,,,,,,,,,,,,,,,,,,,,,,,>>>>>>>>>>>>>>>>>>>>>>>>>>>>>>>>>>>>>>>>>>>>>>>>>>>>,,,,,,,,,,,,,,,,,,,,,,,,,,,,,,,,,,,,,,",
",,,,,,,,,,,,,,,,,,,,,,,,,,,,,,,,,,,,,,,,>>>>>>>>>>>>>>>>>>>>>>>>>>>>>>>>>>>>>>>>>>>>>>>>,,,,,,,,,,,,,,,,,,,,,,,,,,,,,,,,,,,,,,,,",
",,,,,,,,,,,,,,,,,,,,,,,,,,,,,,,,,,,,,,,,,,,>>>>>>>>>>>>>>>>>>>>>>>>>>>>>>>>>>>>>>>>>>,,,,,,,,,,,,,,,,,,,,,,,,,,,,,,,,,,,,,,,,,,,",
",,,,,,,,,,,,,,,,,,,,,,,,,,,,,,,,,,,,,,,,,,,,,,>>>>>>>>>>>>>>>>>>>>>>>>>>>>>>>>>>>>,,,,,,,,,,,,,,,,,,,,,,,,,,,,,,,,,,,,,,,,,,,,,,",
",,,,,,,,,,,,,,,,,,,,,,,,,,,,,,,,,,,,,,,,,,,,,,,,,>>>>>>>>>>>>>>>>>>>>>>>>>>>>>>,,,,,,,,,,,,,,,,,,,,,,,,,,,,,,,,,,,,,,,,,,,,,,,,,",
",,,,,,,,,,,,,,,,,,,,,,,,,,,,,,,,,,,,,,,,,,,,,,,,,,,,,,>>>>>>>>>>>>>>>>>>>>,,,,,,,,,,,,,,,,,,,,,,,,,,,,,,,,,,,,,,,,,,,,,,,,,,,,,,"
};
