/* XPM */
static char *_93ed76f0aa548e1bdcc4c8433b9f42d[] = {
/* columns rows colors chars-per-pixel */
"16 16 14 1 ",
"  c black",
". c #31281F",
"X c #3E321F",
"o c #231F20",
"O c #4C3B1E",
"+ c #74571C",
"@ c #90691B",
"# c #AB7C19",
"$ c #B88518",
"% c #C68E18",
"& c #D39717",
"* c #EEAA16",
"= c #FCB315",
"- c None",
/* pixels */
"-----======-----",
"---===% # ===---",
"--====@ O ====--",
"-====&Xooo+====-",
"-====Oo..oo====-",
"=====oo*$oo=====",
"=====oo=%oo=====",
"=====oo=========",
"=====oo=========",
"=====oo=%oo=====",
"=====oo*$oo=====",
"-====Oo..oo====-",
"-====&XoooO====-",
"--====@ O ====--",
"---===% # ===---",
"-----======-----"
};
